<?xml version="1.0" encoding="utf-8"?>
<!-- Generator: Adobe Illustrator 22.0.1, SVG Export Plug-In . SVG Version: 6.00 Build 0)  -->
<svg version="1.1" id="plus_x5F_icon" xmlns="http://www.w3.org/2000/svg" xmlns:xlink="http://www.w3.org/1999/xlink" x="0px"
	 y="0px" viewBox="0 0 50 50" style="enable-background:new 0 0 50 50;" xml:space="preserve">
<style type="text/css">
	.st0{fill:#FFD44F;}
	.st1{fill:#0A163A;}
</style>
<circle id="plus_x5F_one_x5F_circle" class="st0" cx="25" cy="25" r="25"/>
<g id="plus_x5F_one_x5F_icon">
	<path id="plus_x5F_one_x5F_icon_x5F_path" class="st1" d="M34.3,25.6c0,0.3,0,0.5-0.1,0.5c-0.1,0-0.2,0.1-0.6,0.1h-7.4v7.4
		c0,0.3,0,0.5-0.1,0.5c0,0-0.2,0.1-0.5,0.1h-1.3c-0.3,0-0.5,0-0.5-0.1c0,0-0.1-0.2-0.1-0.5v-7.4h-7.4c-0.3,0-0.5,0-0.6-0.1
		c-0.1,0-0.1-0.2-0.1-0.5v-1.2c0-0.3,0-0.5,0.1-0.5c0.1,0,0.2-0.1,0.6-0.1h7.4v-7.3c0-0.3,0-0.5,0.1-0.5c0.1,0,0.2-0.1,0.6-0.1h1.2
		c0.3,0,0.5,0,0.6,0.1c0.1,0,0.1,0.2,0.1,0.5v7.3h7.4c0.3,0,0.5,0,0.6,0.1c0.1,0,0.1,0.2,0.1,0.5V25.6z"/>
</g>
</svg>
