<?xml version="1.0" encoding="utf-8"?>
<!-- Generator: Adobe Illustrator 22.0.1, SVG Export Plug-In . SVG Version: 6.00 Build 0)  -->
<svg version="1.1" id="glass_x5F_icon_x5F_blue" xmlns="http://www.w3.org/2000/svg" xmlns:xlink="http://www.w3.org/1999/xlink"
	 x="0px" y="0px" viewBox="0 0 135 135" style="enable-background:new 0 0 135 135;" xml:space="preserve">
<style type="text/css">
	.st0{fill:#0A163A;}
</style>
<path id="glass_x5F_icon_x5F_blue_x5F_path" class="st0" d="M135,126.5l-32.4-32.4c8.1-9.9,12.9-22.6,12.9-36.4
	C115.5,25.9,89.6,0,57.8,0S0,25.9,0,57.7c0,31.8,25.9,57.7,57.7,57.7c13.7,0,26.3-4.8,36.3-12.9l32.4,32.4L135,126.5z M57.8,103.4
	C32.6,103.4,12,82.9,12,57.7S32.6,12,57.8,12c25.2,0,45.7,20.5,45.7,45.7S83,103.4,57.8,103.4z"/>
</svg>
